<svg width="538" height="678" viewBox="0 0 538 678" fill="#8A9FA4" xmlns="http://www.w3.org/2000/svg">
<path d="M13 625V53C13 30.9086 30.9086 13 53 13H365.525L525 192.3V625C525 647.091 507.091 665 485 665H53C30.9086 665 13 647.091 13 625Z" fill="black"/>
<path d="M525 192.3V625C525 647.091 507.091 665 485 665H53C30.9086 665 13 647.091 13 625V53C13 30.9086 30.9086 13 53 13H365.525M525 192.3L365.525 13M525 192.3H405.525C383.433 192.3 365.525 174.391 365.525 152.3V13" stroke="white" stroke-width="25"/>
<path d="M129 320H408" stroke="white" stroke-width="34" stroke-linecap="round"/>
<path d="M129 401H408" stroke="white" stroke-width="34" stroke-linecap="round"/>
<path d="M129 482H319" stroke="white" stroke-width="34" stroke-linecap="round"/>
</svg>
