<svg width="667" height="793" viewBox="0 0 667 793" fill="none" xmlns="http://www.w3.org/2000/svg">
<path d="M13 780V128H365.525L525 307.3V780H13Z" fill="black"/>
<path d="M525 307.3V780H13V128H365.525M525 307.3L365.525 128M525 307.3H365.525V128" stroke="white" stroke-width="25"/>
<path d="M77 723V71H429.525L589 250.3V723H77Z" fill="black"/>
<path d="M589 250.3V723H77V71H429.525M589 250.3L429.525 71M589 250.3H429.525V71" stroke="white" stroke-width="25"/>
<path d="M142 665V13H494.525L654 192.3V665H142Z" fill="black"/>
<path d="M654 192.3V665H142V13H494.525M654 192.3L494.525 13M654 192.3H494.525V13" stroke="white" stroke-width="25"/>
<path d="M398 358V494" stroke="white" stroke-width="24"/>
<path d="M330 426H466" stroke="white" stroke-width="24"/>
</svg>
